<svg version="1.1" xmlns="http://www.w3.org/2000/svg" xmlns:xlink="http://www.w3.org/1999/xlink" x="0px" y="0px" viewBox="0 0 48 48" xml:space="preserve" width="48" height="48"><title>single 01</title><g class="nc-icon-wrapper" stroke-linecap="square" stroke-linejoin="miter" stroke-width="2" fill="#ee5d5d" stroke="#ee5d5d"><path fill="none" stroke="#111111" stroke-miterlimit="10" d="M24,24L24,24 c-5.523,0-10-4.477-10-10v-2c0-5.523,4.477-10,10-10h0c5.523,0,10,4.477,10,10v2C34,19.523,29.523,24,24,24z"/> <path data-color="color-2" fill="none" stroke-miterlimit="10" d="M44,38.856 c0-3.101-2.034-5.828-5.007-6.712C35.477,31.098,30.288,30,24,30s-11.477,1.098-14.993,2.144C6.034,33.028,4,35.755,4,38.856V46h40 V38.856z"/></g></svg>